<?xml version="1.0" encoding="UTF-8" standalone="no"?>
<svg width="453px" height="307px" viewBox="0 0 453 307" version="1.1" xmlns="http://www.w3.org/2000/svg" xmlns:xlink="http://www.w3.org/1999/xlink">
    <!-- Generator: Sketch 39.1 (31720) - http://www.bohemiancoding.com/sketch -->
    <title>Group 3</title>
    <desc>Created with Sketch.</desc>
    <defs></defs>
    <g id="Page-1" stroke="none" stroke-width="1" fill="none" fill-rule="evenodd">
        <g id="Desktop-HD" transform="translate(0.000000, -102.000000)">
            <g id="Group-3" transform="translate(-23.000000, 102.000000)">
                <path d="" id="Path-3" stroke="#979797"></path>
                <polygon id="Polygon" fill="#EFF8FB" points="146.117944 92.4203238 255.514483 -2.84217094e-14 293.938492 162.205366 475.882488 306.181473 133.921529 306.181473 108.847058 189.62907"></polygon>
                <polygon id="Polygon" fill="#FFFFFF" points="64.5769569 212.109991 198.989409 135.401198 303.606159 237.079669 368.34061 305.853514 55.3783082 305.853514 37.0872984 274.017275"></polygon>
                <polygon id="Polygon" fill="#A1E7FF" points="213.564118 117.98891 255.259949 0.873621179 348.334502 183.537799 387.225157 305.627117 231.126956 305.627117 280.336838 222.326731"></polygon>
                <polygon id="Polygon" fill="#A1DBFF" points="196.536012 202.927657 196.536012 135.848093 301.950156 235.209882 328.50122 305.718878 172.403019 305.718878 221.612901 259.286919"></polygon>
                <polygon id="Polygon" fill-opacity="0.857478487" fill="#99D3F3" points="55.1751119 224.446059 63.5641242 212.46486 118.601772 305.766388 271.809953 305.766388 0.618630584 305.76639"></polygon>
            </g>
        </g>
    </g>
</svg>