<?xml version="1.0" encoding="UTF-8" standalone="no"?>
<svg width="110px" height="35px" viewBox="0 0 110 35" version="1.1" xmlns="http://www.w3.org/2000/svg" xmlns:xlink="http://www.w3.org/1999/xlink">
    <!-- Generator: Sketch 39.1 (31720) - http://www.bohemiancoding.com/sketch -->
    <title>Group 6</title>
    <desc>Created with Sketch.</desc>
    <defs></defs>
    <g id="Page-1" stroke="none" stroke-width="1" fill="none" fill-rule="evenodd">
        <g id="Desktop-HD" transform="translate(-587.000000, -24.000000)">
            <g id="Group-6" transform="translate(587.000000, 24.000000)">
                <path d="M45.336,33 L49.944,33 L49.944,25.768 C49.944,21.224 51.928,20.328 55.256,20.424 L55.256,16.04 C52.44,16.072 50.68,17.448 49.944,19.336 C49.944,18.44 49.88,16.808 49.816,16.424 L45.304,16.424 C45.336,17.832 45.336,19.272 45.336,20.936 L45.336,33 Z M67.8,27.656 C67.384,28.904 66.552,29.832 64.952,29.832 C62.968,29.832 61.688,28.232 61.688,24.68 C61.688,21.48 62.872,19.656 64.984,19.656 C66.776,19.656 67.544,20.584 67.832,21.928 L72.28,21.928 C72.216,20.072 70.648,16.04 65.08,16.04 C60.024,16.04 57.048,19.944 57.048,24.84 C57.048,29.832 59.704,33.384 64.856,33.384 C69.784,33.384 71.736,30.408 72.28,27.656 L67.8,27.656 Z M73.592,19.88 L76.152,19.88 L76.152,28.584 C76.152,31.496 77.208,33.224 80.44,33.224 C81.368,33.224 82.616,33.224 83.512,32.904 L83.512,29.768 C83.192,29.8 82.744,29.8 82.488,29.8 C81.112,29.8 80.728,29.32 80.728,28.072 L80.728,19.88 L83.992,19.88 L83.992,16.424 L80.728,16.424 L80.728,11.944 L76.152,11.944 L76.152,16.424 L73.592,16.424 L73.592,19.88 Z M86.808,33 L91.416,33 L91.416,16.424 L86.808,16.424 L86.808,33 Z M91.416,13.736 L91.416,9.64 L86.808,9.64 L86.808,13.736 L91.416,13.736 Z M105.368,27.656 C104.952,28.904 104.12,29.832 102.52,29.832 C100.536,29.832 99.256,28.232 99.256,24.68 C99.256,21.48 100.44,19.656 102.552,19.656 C104.344,19.656 105.112,20.584 105.4,21.928 L109.848,21.928 C109.784,20.072 108.216,16.04 102.648,16.04 C97.592,16.04 94.616,19.944 94.616,24.84 C94.616,29.832 97.272,33.384 102.424,33.384 C107.352,33.384 109.304,30.408 109.848,27.656 L105.368,27.656 Z" id="rctic" fill-opacity="0.85" fill="#FFFFFF"></path>
                <g id="Group-4">
                    <polygon id="Polygon" fill="#EFF8FB" points="11.6834409 8.97573453 15.1366632 10.3551567 19.917474 0.662234127 27.2448448 18.7636693 31.9894438 14.5623152 40.7173729 33.1298733 28.8279153 33.1298723 19.9174732 22.8824563 12.5970943 26.26595 6.66671018 34.4660325 0.355214845 34.4660325"></polygon>
                    <polygon id="Path-4" fill="#A1E7FF" points="27.087309 18.3326879 23.7826143 28.0235133 28.5610998 33.3048643 38.2511417 33.3048643"></polygon>
                    <polygon id="Path-4" fill="#AADDEF" points="13.9708712 9.38606819 12.6247815 19.1358344 14.6320152 27.7122439 20.4119528 23.2470067"></polygon>
                </g>
            </g>
        </g>
    </g>
</svg>